<svg xmlns="http://www.w3.org/2000/svg" width="112.511" height="18.442" viewBox="0 0 112.511 18.442"><defs><style>.a{fill:none;stroke:#fff;stroke-linecap:round;stroke-linejoin:round;stroke-width:3px;}.b{fill:#fff;}</style></defs><g transform="translate(-63.237 -27)"><path class="a" d="M19.942,11.792a7.189,7.189,0,0,1-.772,3.26,7.292,7.292,0,0,1-6.52,4.032,7.189,7.189,0,0,1-3.26-.772L4.5,19.942l1.63-4.89a7.189,7.189,0,0,1-.772-3.26A7.292,7.292,0,0,1,9.39,5.272,7.189,7.189,0,0,1,12.65,4.5h.429a7.275,7.275,0,0,1,6.863,6.863Z" transform="translate(60.237 24)"/><path class="b" d="M1.19,0V-11.985H9.282v2.091H3.808V-7.14H8.942v2.091H3.808V0ZM16.507-6.443l-1.445.153a2.235,2.235,0,0,0-1.513.6,1.945,1.945,0,0,0-.442,1.334V0H10.54V-8.347h2.465v1.411a2.765,2.765,0,0,1,2.6-1.581l.748-.051Zm4.556-2.108a3.788,3.788,0,0,1,2.763.884,3.709,3.709,0,0,1,.892,2.737V0H22.287V-1.241a2.035,2.035,0,0,1-.85,1.011,2.61,2.61,0,0,1-1.394.366A3.427,3.427,0,0,1,18.5-.2a2.694,2.694,0,0,1-1.088-.952,2.435,2.435,0,0,1-.4-1.36,2.1,2.1,0,0,1,.468-1.445,2.793,2.793,0,0,1,1.5-.765,13.289,13.289,0,0,1,2.839-.238h.442V-5.27a1.413,1.413,0,0,0-.323-1.054,1.621,1.621,0,0,0-1.122-.306,4.841,4.841,0,0,0-1.36.221,6.616,6.616,0,0,0-1.428.612l-.68-1.717a6.964,6.964,0,0,1,1.76-.74A7.139,7.139,0,0,1,21.063-8.551ZM20.6-1.632a1.559,1.559,0,0,0,1.207-.5,1.851,1.851,0,0,0,.459-1.3v-.289h-.289a5.809,5.809,0,0,0-1.93.221.8.8,0,0,0-.552.8,1.023,1.023,0,0,0,.314.765A1.088,1.088,0,0,0,20.6-1.632ZM31.875-8.551a2.736,2.736,0,0,1,2.227.876,4.053,4.053,0,0,1,.731,2.643V0H32.266V-4.913a1.976,1.976,0,0,0-.314-1.241,1.18,1.18,0,0,0-.978-.391,1.688,1.688,0,0,0-1.283.51,1.893,1.893,0,0,0-.485,1.36V0H26.639V-8.347h2.5v1.19a2.925,2.925,0,0,1,1.147-1.037A3.471,3.471,0,0,1,31.875-8.551ZM45.662,0H42.517l-3.2-3.723V0H36.754V-11.985h2.567v7.208L42.4-8.33h3.06l-3.5,3.978ZM58.888-6.2a3,3,0,0,1,1.607,1.063,3.006,3.006,0,0,1,.569,1.861,2.9,2.9,0,0,1-1.114,2.4A4.811,4.811,0,0,1,56.882,0h-5.7V-11.985h5.525a4.79,4.79,0,0,1,2.966.833,2.706,2.706,0,0,1,1.1,2.278,2.759,2.759,0,0,1-.5,1.641A2.848,2.848,0,0,1,58.888-6.2Zm-5.117-.9h2.5a2.6,2.6,0,0,0,1.5-.348,1.222,1.222,0,0,0,.485-1.063,1.259,1.259,0,0,0-.485-1.1,2.6,2.6,0,0,0-1.5-.349h-2.5Zm2.8,5.083a2.579,2.579,0,0,0,1.53-.357,1.351,1.351,0,0,0,.476-1.156,1.4,1.4,0,0,0-.476-1.173,2.488,2.488,0,0,0-1.53-.374h-2.8v3.06ZM62.7,0V-11.985h2.567V0Zm8.551.136A4.872,4.872,0,0,1,68.918-.4a3.755,3.755,0,0,1-1.547-1.513,4.662,4.662,0,0,1-.544-2.3,4.662,4.662,0,0,1,.544-2.3,3.7,3.7,0,0,1,1.547-1.5,4.936,4.936,0,0,1,2.329-.527,4.936,4.936,0,0,1,2.329.527,3.7,3.7,0,0,1,1.547,1.5,4.662,4.662,0,0,1,.544,2.3,4.662,4.662,0,0,1-.544,2.3A3.755,3.755,0,0,1,73.576-.4,4.872,4.872,0,0,1,71.247.136Zm0-1.955q1.87,0,1.87-2.4a2.815,2.815,0,0,0-.485-1.8,1.684,1.684,0,0,0-1.385-.595q-1.87,0-1.87,2.4T71.247-1.819Zm14.5-6.528V-.9a3.9,3.9,0,0,1-1.156,3.06A4.968,4.968,0,0,1,81.175,3.2a8.377,8.377,0,0,1-2.15-.272,6.478,6.478,0,0,1-1.811-.765l.68-1.768a6.646,6.646,0,0,0,3.213.884q2.108,0,2.108-1.989v-.918a2.522,2.522,0,0,1-1.071,1.02,3.391,3.391,0,0,1-1.6.374,3.649,3.649,0,0,1-1.93-.51A3.493,3.493,0,0,1,77.3-2.2a4.788,4.788,0,0,1-.476-2.184A4.788,4.788,0,0,1,77.3-6.57a3.551,3.551,0,0,1,1.317-1.462,3.6,3.6,0,0,1,1.93-.519,3.367,3.367,0,0,1,1.572.366A2.59,2.59,0,0,1,83.2-7.174V-8.347ZM81.294-2.193a1.758,1.758,0,0,0,1.4-.578,2.386,2.386,0,0,0,.5-1.615,2.42,2.42,0,0,0-.5-1.624,1.746,1.746,0,0,0-1.4-.587,1.771,1.771,0,0,0-1.411.587,2.393,2.393,0,0,0-.51,1.624,2.366,2.366,0,0,0,.51,1.606A1.771,1.771,0,0,0,81.294-2.193Z" transform="translate(90 42)"/></g></svg>